<svg width="278" height="74" viewBox="0 0 278 74" fill="none" xmlns="http://www.w3.org/2000/svg">
<path fill-rule="evenodd" clip-rule="evenodd" d="M245.1 38.7C248.7 38.7 251.7 37.5 254 35C256.3 32.5 257.5 29.3 257.5 25.1C257.5 21 256.3 17.7 254 15.2C251.7 12.7 248.7 11.5 245.1 11.5C241.5 11.5 238.5 12.7 236.1 15.2C233.7 17.7 232.6 20.9 232.6 25.1C232.6 29.2 233.8 32.5 236.1 35C238.4 37.5 241.4 38.7 245.1 38.7ZM95.8998 11.7C92.2998 11.7 89.2998 12.9 86.8998 15.4C84.5998 17.9 83.3998 21.1 83.3998 25.3C83.3998 29.4 84.5998 32.7 86.8998 35.2C89.1998 37.7 92.1998 38.9 95.8998 38.9C99.4998 38.9 102.5 37.7 104.9 35.2C107.2 32.7 108.4 29.5 108.4 25.3C108.4 21.2 107.2 17.9 104.9 15.4C102.5 12.9 99.5998 11.7 95.8998 11.7ZM108.2 0.8V5.7C104.7 1.9 99.7998 0 93.4998 0C88.9998 0 84.7998 1 81.0998 3.1C77.3998 5.2 74.3998 8.1 72.2998 11.9C70.1998 15.7 69.0998 20.1 69.0998 25.1C69.0998 30.1 70.1998 34.5 72.2998 38.3C74.3998 42.1 77.2998 45 81.0998 47.1C84.7998 49.2 88.9998 50.2 93.4998 50.2C99.6998 50.2 104.7 48.2 108.2 44.3V48.7C108.2 52.7 107 56 104.7 58.4C102.4 60.9 99.3998 62.1 95.6998 62.1C92.0998 62.1 88.9998 60.9 86.6998 58.4C85.8998 57.6 85.2998 56.7 84.7998 55.8L71.0998 59.5C71.3998 60.2 71.7998 60.9 72.1998 61.6C74.4998 65.4 77.6998 68.4 81.7998 70.5C85.8998 72.6 90.4998 73.7 95.6998 73.7C100.8 73.7 105.5 72.6 109.5 70.5C110.7 69.9 111.8 69.2 112.8 68.4C118.7 63.6 122.6 57.4 122.4 48.2V0.8H108.2ZM26.0998 32.7C21.4998 30.1 14.6998 30.1 9.09976 27C-0.100244 21.9 -1.30024 10.8 6.99976 4.3C10.6998 1.4 15.4998 0 21.4998 0C27.8998 0 32.9998 1.4 36.8998 4.3C40.7998 7.2 42.6998 11 42.6998 15.7H27.5998C27.5998 9.7 20.9998 8.3 17.4998 11.2C15.1998 13.1 15.2998 16.2 17.8998 17.8C20.9998 19.8 27.7998 20.4 31.7998 21.8C43.6998 25.9 47.0998 38.9 36.8998 46.1C29.8998 51 18.1998 51.6 10.4998 48C4.69976 45.5 -0.000244141 40.4 -0.000244141 33.9H14.0998C14.2998 40.5 22.8998 42 26.4998 39.1C28.7998 37.2 28.5998 34.2 26.0998 32.7ZM48.7998 0.8H62.9998V49.7H48.7998V0.8ZM192.1 0C198.2 0 203.1 1.8 206.7 5.4C210.3 9 212.1 14.4 212.1 21.6V49.6H197.9V23.8C197.9 20.2 197.3 16.2 194.2 13.9C189.5 10 182.3 11.3 179.4 16.7C178.2 18.8 177.9 22.6 177.9 25.1V49.6H163.7V23.8C163.7 17.3 160.8 11.6 153.7 11.6C149.2 11.6 145.4 14.6 144.3 18.7C143.8 20.5 143.9 23.2 143.8 25V49.5H129.6V0.8H143.8V5.7C145.5 4 147.5 2.6 149.8 1.7C152.4 0.6 155.3 0.1 158.5 0.1C162 0.1 165.1 0.8 167.9 2.1C170.7 3.5 172.9 5.4 174.6 8.1C176.6 5.6 179.1 3.6 182.2 2.2C185.1 0.7 188.4 0 192.1 0ZM271.5 20.7L277.3 49.7H263L262.1 45.2C261.1 46 260 46.6 258.8 47.3C254.7 49.5 250.1 50.5 245 50.5C239.9 50.5 235.2 49.4 231.1 47.3C227 45.1 223.8 42.2 221.5 38.4C219.2 34.6 218 30.3 218 25.4C218 20.6 219.2 16.2 221.5 12.4C223.8 8.6 227 5.6 231.1 3.5C235.2 1.3 239.8 0.3 245 0.3C250.1 0.3 254.8 1.4 258.8 3.5C262.9 5.7 266 8.6 268.3 12.4C270 14.8 271 17.6 271.5 20.7Z" fill="#ED1B2F"/>
</svg>
